<svg width="27" height="30" viewBox="0 0 27 30" fill="none" xmlns="http://www.w3.org/2000/svg">
<path d="M6 21H16.5V24H6V21ZM6 15H21V18H6V15ZM6 9H21V12H6V9ZM24 3H17.73C17.1 1.26 15.45 0 13.5 0C11.55 0 9.9 1.26 9.27 3H3C2.79 3 2.595 3.015 2.4 3.06C1.815 3.18 1.29 3.48 0.885 3.885C0.615 4.155 0.39 4.485 0.24 4.845C0.0900001 5.19 0 5.58 0 6V27C0 27.405 0.0900001 27.81 0.24 28.17C0.39 28.53 0.615 28.845 0.885 29.13C1.29 29.535 1.815 29.835 2.4 29.955C2.595 29.985 2.79 30 3 30H24C25.65 30 27 28.65 27 27V6C27 4.35 25.65 3 24 3ZM13.5 2.625C14.115 2.625 14.625 3.135 14.625 3.75C14.625 4.365 14.115 4.875 13.5 4.875C12.885 4.875 12.375 4.365 12.375 3.75C12.375 3.135 12.885 2.625 13.5 2.625ZM24 27H3V6H24V27Z" fill="#B44D54"/>
</svg>
